<svg xmlns="http://www.w3.org/2000/svg" viewBox="0 0 960 1280"><polygon points="588,333 587,334 586,334 581,339 580,339 580,340 579,341 579,342 577,344 577,345 576,346 576,350 575,351 575,355 574,356 574,358 573,359 573,361 572,362 572,363 571,364 571,365 570,366 570,367 569,368 569,369 568,370 568,371 567,372 567,373 566,374 566,375 564,377 562,377 561,378 560,378 559,379 558,379 557,380 556,380 554,382 553,382 552,383 550,383 549,384 546,384 545,385 543,385 542,386 539,386 538,387 536,387 535,388 533,388 532,389 531,389 530,390 529,390 528,391 527,391 525,393 524,393 523,394 522,394 520,396 519,396 515,400 514,400 514,401 502,413 501,413 500,414 499,414 496,417 495,417 493,419 491,419 490,420 488,420 485,423 484,423 481,426 481,429 480,430 480,436 479,437 479,439 478,440 478,441 477,442 477,443 476,444 476,445 475,446 475,447 471,451 471,452 467,456 467,457 463,461 463,462 462,463 461,463 460,464 460,465 459,466 458,466 456,468 455,468 454,469 453,469 452,470 451,470 449,472 448,472 447,473 445,473 444,474 443,474 442,475 440,475 439,476 438,476 437,477 436,477 435,478 433,478 432,479 431,479 430,480 429,480 428,481 427,481 426,482 425,482 424,483 422,483 421,484 420,484 419,485 418,485 417,486 416,486 415,487 414,487 413,488 411,488 410,489 408,489 407,490 405,490 403,492 402,492 400,494 399,494 396,497 395,497 394,498 393,498 391,500 389,500 387,502 385,502 384,503 382,503 381,504 379,504 377,506 376,506 374,508 373,508 368,513 368,514 367,515 367,517 366,518 366,527 367,528 367,529 368,530 368,531 370,533 370,535 371,536 371,537 372,538 372,539 376,543 377,543 378,544 379,544 380,545 381,545 383,547 385,547 386,548 388,548 389,549 390,549 391,550 392,550 394,552 395,552 397,554 398,554 400,556 401,556 402,557 403,557 404,558 407,558 408,559 409,559 410,560 411,560 412,561 413,561 414,562 419,562 420,563 422,563 423,564 427,564 428,565 430,565 431,566 432,565 434,565 435,566 436,565 442,565 443,564 451,564 452,563 455,563 456,562 461,562 462,561 469,561 470,560 471,560 472,561 473,560 494,560 495,559 496,560 498,560 499,559 500,559 501,560 517,560 518,559 525,559 526,558 530,558 531,557 534,557 535,556 540,556 541,555 546,555 547,556 549,556 551,558 551,559 552,559 553,560 553,561 555,563 555,565 556,566 556,569 557,570 557,574 558,575 558,579 559,580 559,588 557,590 556,590 555,591 554,591 552,593 551,593 550,594 549,594 548,595 545,595 544,596 543,596 542,597 541,597 540,598 538,598 537,599 536,599 535,600 533,600 532,601 530,601 529,602 527,602 524,605 523,605 523,606 520,609 520,610 513,617 513,618 510,621 510,622 509,623 508,623 505,626 504,626 503,627 503,629 502,630 502,645 503,646 503,662 504,663 504,672 505,673 505,684 504,685 504,686 503,687 503,689 502,690 502,692 501,693 501,696 500,697 500,699 499,700 499,701 498,702 498,704 497,705 497,706 496,707 496,710 495,711 495,713 494,714 494,717 493,718 493,719 492,720 492,723 491,724 491,725 490,726 490,728 489,729 489,730 488,731 488,733 487,734 487,736 486,737 486,739 485,740 485,742 484,743 484,747 483,748 483,751 482,752 482,756 481,757 481,761 480,762 480,767 479,768 479,770 478,771 478,776 477,777 477,786 476,787 476,804 477,805 477,807 476,808 476,812 475,813 475,815 473,817 473,819 472,820 472,821 469,824 469,825 468,826 468,827 467,828 467,829 465,831 465,832 464,833 464,834 463,835 463,836 462,837 462,838 460,840 460,841 458,843 458,844 456,846 456,847 453,850 453,851 451,853 450,853 448,855 447,855 444,852 442,852 441,851 440,851 436,847 434,847 433,846 432,846 431,845 430,845 427,842 425,842 423,840 421,840 419,838 418,838 416,836 415,836 414,835 414,834 402,822 401,822 400,821 389,821 388,822 386,822 385,823 384,823 383,824 383,825 379,829 378,829 377,830 372,830 371,831 367,831 366,832 364,832 363,833 363,836 362,837 362,838 361,839 361,842 360,843 361,844 361,853 360,854 360,855 358,857 357,857 357,860 356,861 356,862 357,863 356,864 357,865 357,867 358,868 359,868 362,871 363,871 365,873 367,873 368,874 370,874 373,877 373,878 364,887 363,887 363,888 362,889 361,889 352,898 352,899 351,900 351,905 352,906 352,910 354,912 354,917 350,921 350,922 347,925 346,925 345,926 335,926 334,927 333,927 333,930 334,931 334,934 335,935 335,936 336,937 336,938 337,939 337,941 338,942 338,943 339,944 339,945 340,945 341,946 341,947 343,949 343,951 344,952 344,953 345,954 345,956 350,961 354,961 355,962 361,962 362,963 364,963 365,964 366,964 367,965 368,965 369,966 370,966 371,967 372,967 373,968 375,968 376,969 379,969 380,968 381,968 382,967 383,967 385,965 386,965 389,962 390,962 392,960 392,959 393,958 393,957 394,956 394,955 396,953 396,952 398,950 399,950 401,948 402,948 403,947 405,947 407,945 408,945 409,944 411,944 412,943 415,943 416,942 417,942 418,941 421,941 423,943 424,943 425,944 425,945 426,945 427,946 430,946 431,945 432,945 432,944 433,943 433,942 434,941 434,940 436,938 436,937 438,935 439,935 440,934 443,934 444,933 445,933 446,934 447,933 449,935 450,934 451,934 454,937 453,936 455,934 456,934 458,936 457,937 459,935 461,937 460,938 462,940 461,941 462,940 463,941 463,942 462,943 461,943 460,944 460,947 458,949 458,950 457,951 456,951 450,957 450,958 448,960 447,960 447,961 443,965 443,966 433,976 433,977 431,979 431,980 429,982 428,982 428,983 426,985 425,985 425,986 423,988 422,988 417,993 416,993 412,997 411,997 406,1002 406,1003 404,1005 404,1006 402,1008 402,1009 398,1013 398,1014 393,1019 393,1020 376,1037 375,1037 373,1039 372,1039 372,1040 371,1041 370,1041 369,1042 368,1042 367,1043 366,1043 365,1044 364,1044 362,1046 361,1046 360,1047 359,1047 358,1048 357,1048 356,1049 355,1049 354,1050 353,1050 352,1051 350,1051 349,1052 348,1052 347,1053 344,1053 343,1054 340,1054 339,1055 338,1055 337,1056 335,1056 334,1057 332,1057 331,1058 330,1058 329,1059 328,1059 327,1060 324,1060 323,1061 320,1061 319,1062 318,1061 317,1062 316,1061 315,1062 314,1062 313,1063 312,1063 309,1066 307,1066 306,1067 305,1067 301,1071 300,1071 299,1072 298,1072 296,1074 295,1074 293,1076 292,1076 291,1077 289,1077 289,1078 286,1081 286,1082 285,1083 285,1084 287,1086 288,1086 289,1087 289,1088 290,1088 294,1092 295,1092 296,1093 297,1093 300,1096 300,1097 301,1098 302,1098 303,1099 304,1099 308,1103 309,1103 310,1104 312,1104 313,1105 321,1105 322,1106 326,1106 327,1107 328,1106 332,1106 333,1105 337,1105 338,1104 342,1104 343,1103 345,1103 346,1102 349,1102 350,1101 362,1101 363,1100 364,1100 366,1098 366,1097 370,1093 370,1092 373,1089 373,1088 376,1085 377,1085 377,1084 379,1082 379,1081 386,1074 386,1073 389,1070 390,1070 395,1065 396,1065 400,1061 401,1061 402,1060 403,1060 404,1059 405,1059 406,1058 409,1058 410,1057 411,1057 412,1056 413,1056 414,1055 415,1055 416,1054 420,1054 421,1053 422,1054 426,1054 427,1053 428,1053 430,1051 430,1050 431,1049 431,1048 433,1046 433,1045 434,1044 434,1043 435,1042 435,1041 441,1035 441,1034 445,1030 445,1029 449,1025 449,1024 451,1022 451,1021 454,1018 454,1017 455,1016 456,1016 456,1015 470,1001 471,1001 473,999 473,998 474,997 475,997 476,996 476,995 478,993 479,993 486,986 487,986 493,980 494,980 495,979 495,978 496,977 497,977 503,971 505,971 507,973 508,973 510,975 511,975 512,976 513,976 514,977 515,977 516,978 517,977 520,977 521,978 523,978 526,975 527,976 528,976 529,975 531,975 532,974 533,975 534,974 535,975 538,972 540,972 541,971 541,970 542,969 542,961 543,960 542,961 541,960 540,960 539,959 539,958 540,957 544,957 545,958 546,958 547,959 549,959 550,960 553,960 554,961 555,961 556,962 558,962 559,963 559,964 560,964 561,965 563,965 564,966 565,966 566,967 570,967 572,969 571,970 570,970 570,971 569,972 568,971 568,970 568,972 567,973 566,972 564,974 565,975 565,977 564,978 565,979 564,980 563,980 564,981 563,982 562,982 563,983 562,984 563,985 562,986 563,987 562,988 561,988 562,989 561,990 562,991 562,994 561,995 561,998 562,999 562,1003 561,1004 561,1005 562,1006 562,1012 563,1013 563,1015 564,1016 564,1017 566,1019 567,1019 568,1020 570,1020 571,1021 575,1021 576,1020 577,1020 579,1018 579,1017 580,1016 580,1014 581,1013 581,1006 582,1005 582,1003 583,1002 582,1001 583,1000 583,990 584,989 584,987 586,985 589,985 592,988 592,989 593,990 593,991 596,994 596,996 597,997 596,998 597,999 597,1001 598,1002 597,1003 597,1005 596,1006 596,1008 595,1009 595,1010 594,1011 593,1011 593,1013 592,1014 592,1017 591,1018 591,1022 590,1023 590,1026 589,1027 589,1034 590,1035 590,1037 591,1038 591,1040 592,1041 592,1047 593,1048 593,1050 595,1052 595,1054 596,1055 596,1056 597,1057 597,1058 599,1060 598,1061 599,1062 599,1063 601,1065 601,1066 602,1067 602,1068 603,1069 602,1070 603,1071 603,1072 606,1075 606,1078 608,1080 608,1081 609,1081 611,1083 611,1084 612,1085 612,1086 613,1087 613,1088 618,1093 618,1094 619,1095 619,1096 621,1098 621,1099 622,1100 622,1101 623,1102 623,1103 625,1105 625,1106 627,1108 628,1108 629,1109 629,1110 631,1112 632,1112 633,1113 635,1113 637,1115 637,1116 640,1119 641,1119 644,1122 644,1123 645,1124 646,1124 652,1130 653,1130 654,1131 654,1132 658,1136 659,1136 660,1137 661,1137 662,1138 663,1138 664,1137 668,1137 669,1136 672,1136 673,1135 679,1135 680,1134 682,1134 683,1133 685,1133 686,1132 687,1132 688,1131 690,1131 691,1130 692,1130 693,1129 694,1129 695,1128 695,1127 698,1124 698,1123 699,1122 699,1121 701,1119 701,1118 702,1117 702,1115 704,1113 704,1112 705,1111 705,1110 706,1109 706,1108 707,1107 707,1105 708,1104 708,1103 710,1101 710,1100 711,1099 711,1098 712,1097 712,1096 714,1094 714,1093 715,1092 715,1091 716,1090 716,1089 718,1087 718,1086 719,1085 719,1083 720,1082 720,1081 722,1079 722,1078 723,1077 723,1076 724,1075 724,1074 726,1072 726,1071 727,1070 727,1069 730,1066 730,1065 731,1064 731,1063 734,1060 734,1059 735,1058 735,1057 738,1054 738,1053 741,1050 743,1050 744,1049 745,1049 746,1048 747,1048 748,1047 749,1047 751,1045 752,1045 753,1044 755,1044 756,1043 758,1043 762,1039 763,1039 766,1036 766,1035 770,1031 770,1030 774,1026 774,1025 775,1024 775,1022 776,1021 776,1020 780,1016 780,1015 781,1014 782,1014 783,1013 783,1010 784,1009 784,1008 788,1004 788,1003 791,1000 791,999 792,998 792,997 795,994 795,993 796,992 796,989 797,988 797,983 796,982 796,979 795,978 795,976 794,975 794,974 793,973 793,971 792,970 792,969 791,968 791,965 790,964 790,963 789,962 789,961 788,960 788,959 787,958 787,956 786,955 786,954 785,953 785,951 784,950 784,949 783,948 783,945 782,944 782,942 781,941 781,939 780,938 780,935 779,934 779,932 778,931 778,929 777,928 777,926 776,925 776,923 775,922 775,918 774,917 774,914 773,913 773,909 772,908 772,902 771,901 771,897 770,896 770,893 769,892 769,888 768,887 768,880 767,879 767,873 765,871 765,868 764,867 764,864 763,863 763,860 762,859 762,853 761,852 761,849 760,848 760,846 759,845 759,842 758,841 758,839 757,838 757,836 756,835 756,834 755,833 755,831 754,830 754,829 753,828 753,826 752,825 752,823 751,822 751,821 750,820 750,818 749,817 749,814 748,813 748,808 747,807 747,801 746,800 746,794 745,793 745,787 744,786 744,782 743,781 744,780 743,779 743,776 742,775 742,774 743,773 742,772 742,763 743,762 743,760 744,759 747,759 748,758 752,758 753,757 754,757 756,755 757,755 759,753 760,753 761,752 762,752 762,750 763,749 763,745 762,744 762,742 761,741 761,739 760,738 760,733 757,730 757,729 756,728 756,726 755,725 755,724 750,719 749,719 748,718 748,716 746,714 746,712 744,710 743,710 742,709 741,710 739,708 738,709 734,709 733,710 732,709 730,711 729,711 728,712 722,712 721,711 720,711 719,710 718,710 717,709 717,708 713,704 713,703 707,697 707,696 705,694 705,693 703,691 703,690 702,689 702,688 701,687 701,685 699,683 699,682 698,681 698,678 697,677 697,672 696,671 696,670 697,669 696,668 696,639 697,638 697,634 698,633 698,631 699,630 699,627 700,626 700,624 701,623 701,619 702,618 702,613 701,612 701,610 700,609 700,608 699,607 697,607 696,606 695,606 690,601 690,600 687,597 687,596 686,595 686,594 684,592 684,591 682,589 682,587 681,586 681,584 680,583 680,564 681,563 681,511 680,510 680,502 679,501 679,499 678,498 678,495 679,494 679,492 680,491 681,491 683,489 683,488 691,480 691,479 692,478 693,478 694,477 694,475 695,474 695,471 694,470 694,469 693,468 693,467 692,466 692,464 690,462 690,461 686,457 686,456 683,453 683,452 682,451 682,449 681,448 681,447 680,446 680,444 679,443 679,441 678,440 678,439 677,438 677,437 676,436 676,434 675,433 675,432 674,431 674,429 673,428 673,427 672,426 672,425 671,424 671,422 670,421 670,419 669,418 669,416 668,415 668,413 667,412 667,410 666,409 666,407 665,406 665,404 664,403 664,401 663,400 663,398 662,397 662,395 661,394 661,392 660,391 660,388 659,387 656,387 655,386 651,386 650,387 644,387 643,388 628,388 626,386 626,385 625,384 625,383 624,382 624,380 623,379 623,372 624,371 624,366 625,365 625,359 626,358 626,352 625,351 625,349 623,347 619,347 618,346 616,346 615,347 608,347 607,346 602,346 601,345 601,344 599,342 599,338 598,337 598,336 595,333" fill="black"/></svg>